<?xml version="1.0" encoding="utf-8"?>
<!-- Generator: Adobe Illustrator 25.0.0, SVG Export Plug-In . SVG Version: 6.00 Build 0)  -->
<svg version="1.1" xmlns="http://www.w3.org/2000/svg" xmlns:xlink="http://www.w3.org/1999/xlink" x="0px" y="0px"
	 viewBox="0 0 16 16" style="enable-background:new 0 0 16 16;" xml:space="preserve">
<style type="text/css">
	.st0{fill:#283F55;}
	.st1{fill:#FFFFFF;}
	.st2{fill:#48509E;}
</style>
<g id="Layer_1">
	<g>
		<g>
			<path class="st0" d="M11,16h1.1c0.2,0,0.4-0.2,0.4-0.4l0.3-2.2c0-0.2-0.2-0.4-0.4-0.4h-1.8c-0.2,0-0.4,0.2-0.4,0.4l0.3,2.2
				C10.6,15.8,10.8,16,11,16z"/>
			<path class="st0" d="M3.3,16h1.1c0.2,0,0.4-0.2,0.4-0.4l0.3-2.2c0-0.2-0.2-0.4-0.4-0.4H3c-0.2,0-0.4,0.2-0.4,0.4l0.3,2.2
				C2.9,15.8,3.1,16,3.3,16z"/>
			<path class="st0" d="M1,9.8c0,3.2,3.1,5.8,6.8,5.8s6.8-2.6,6.8-5.8c0-3.2-2.3-6-6.8-6C3.4,3.8,1,6.6,1,9.8z"/>
			<path class="st0" d="M12.9,12.8l1.1,0c0.9,0,1.3-0.2,1.5-0.9L16,9.8c0.1-0.4-0.1-0.9-0.6-1l-1.3-0.4c-0.6-0.2-1.3,0.2-1.5,0.9
				l-0.5,1.9C11.9,11.8,12.2,12.6,12.9,12.8z"/>
			<path class="st0" d="M10.7,5c0,0,1.8-1.5,3.9-0.8c0,0,0,0,0,0.1c0,0,0.2,2.4-2,3.6c0,0,0,0,0,0c0,0,0,0-0.1,0L10.7,5
				C10.6,5,10.6,5,10.7,5z"/>
			<path class="st0" d="M0.2,7c0.1,0,0.3,0,0.4,0.1C1,7.8,1.7,7.9,2,8C2.1,8,2.2,8,2.2,8c0.1,0.1,0.1,0.1,0.1,0.2L1.8,9.7
				c0,0-0.1,0.1-0.1,0.1c0,0-0.1,0-0.1,0c0,0,0,0-0.1,0C0.3,9.3,0,8,0,7.3C0,7.2,0.1,7,0.2,7z"/>
			<circle class="st1" cx="12.3" cy="8.4" r="0.4"/>
			<g>
				<path class="st0" d="M5.9,5.5c2-0.7,3.9,0,3.9,0L10,4.9c-0.1,0-2-0.8-4.3,0L5.9,5.5z"/>
			</g>
			<path class="st0" d="M12.8,13.9c-1.2,1.1-3,1.8-4.9,1.8c-3.7,0-6.7-2.5-6.8-5.7C4.8,15,10.3,14.4,12.8,13.9z"/>
			<path class="st0" d="M15.7,10c0,0,0.4-0.9-1.1-1.2C14.6,8.8,15.5,9.2,15.7,10z"/>
			<path class="st0" d="M14.4,4.4c0,0-0.5-0.3-1-0.2c0,0,0.7,0.6,0.4,2.2C13.8,6.4,14.4,5.5,14.4,4.4z"/>
			<path class="st0" d="M8,5.2c-0.6,0-1.4,0-2.1,0.3L5.7,4.9L8,5.2L8,5.2z"/>
		</g>
		<g>
			<g>
				<ellipse class="st1" cx="5.8" cy="3.4" rx="3.4" ry="3.4"/>
			</g>
			<g>
				<ellipse class="st2" cx="5.8" cy="3.4" rx="2.9" ry="2.9"/>
			</g>
			<g>
				<path class="st2" d="M4.3,0.9c-0.3,0.4-0.5,1-0.5,1.5c0,1.6,1.3,2.9,2.9,2.9c0.5,0,1.1-0.2,1.5-0.4C7.7,5.7,6.9,6.3,5.8,6.3
					C4.3,6.3,3,5,3,3.4C3,2.3,3.5,1.4,4.3,0.9z"/>
			</g>
			<g>
				<path class="st2" d="M8.2,3.7c0-1.4-1.1-2.5-2.5-2.5c-0.8,0-1.5,0.4-2,1c0.4-0.8,1.3-1.3,2.2-1.3c1.4,0,2.5,1.1,2.5,2.5
					c0,0.6-0.2,1.1-0.5,1.5C8.1,4.5,8.2,4.1,8.2,3.7z"/>
			</g>
		</g>
	</g>
</g>
<g id="Layer_2">
</g>
<g id="Layer_3">
</g>
</svg>
